<?xml version="1.0" encoding="UTF-8" standalone="no"?>
<!DOCTYPE svg PUBLIC "-//W3C//DTD SVG 1.1//EN" "http://www.w3.org/Graphics/SVG/1.1/DTD/svg11.dtd">
<svg width="100%" height="100%" viewBox="0 0 1914 417" version="1.1" xmlns="http://www.w3.org/2000/svg" xmlns:xlink="http://www.w3.org/1999/xlink" xml:space="preserve" xmlns:serif="http://www.serif.com/" style="fill-rule:evenodd;clip-rule:evenodd;stroke-linejoin:round;stroke-miterlimit:2;">
    <g transform="matrix(4.16667,0,0,4.16667,1990.81,33.2917)">
        <path d="M-43.318,53.596C-43.318,51.106 -41.242,49.341 -38.648,49.341C-35.638,49.341 -33.666,51.106 -32.835,54.323L-19.24,50.898C-21.626,42.803 -28.892,37.614 -38.44,37.614C-49.96,37.614 -57.744,45.501 -57.744,54.531C-57.744,73.627 -33.147,67.4 -33.147,75.495C-33.147,78.712 -35.741,80.373 -38.855,80.373C-42.591,80.373 -45.808,77.986 -47.054,73.627L-60.442,77.675C-58.159,86.911 -48.715,92.204 -39.062,92.204C-28.58,92.204 -18.513,85.355 -18.513,74.665C-18.513,55.154 -43.318,61.277 -43.318,53.596M-65.214,69.476L-65.214,38.859L-80.99,38.859L-80.99,68.957C-80.99,75.08 -84.103,78.712 -89.396,78.712C-94.792,78.712 -97.906,75.08 -97.906,68.957L-97.906,38.859L-113.681,38.859L-113.681,69.371C-113.681,82.864 -103.51,92.204 -89.396,92.204C-75.385,92.204 -65.214,82.864 -65.214,69.476M-120.026,18.829C-120.026,13.639 -124.281,9.488 -129.366,9.488C-134.555,9.488 -138.811,13.639 -138.811,18.829C-138.811,24.018 -134.555,28.169 -129.366,28.169C-124.281,28.169 -120.026,24.018 -120.026,18.829M-158.693,70.839L-158.693,52.433L-145.074,52.433L-145.074,39.029L-158.693,39.029L-158.693,18.828L-174.349,18.828L-174.349,70.839C-174.349,81.864 -165.39,90.836 -154.37,90.858L-144.098,90.955L-143.95,75.299L-154.256,75.202L-154.33,75.202C-156.736,75.202 -158.693,73.245 -158.693,70.839M-197.736,90.959L-181.96,90.959L-181.96,38.859L-197.736,38.859L-197.736,45.087C-200.849,41.039 -206.765,37.614 -213.926,37.614C-228.144,37.614 -239.665,49.341 -239.665,64.909C-239.665,80.477 -228.144,92.204 -213.926,92.204C-206.765,92.204 -200.849,88.779 -197.736,84.732L-197.736,90.959ZM-197.32,64.909C-197.32,72.693 -203.028,78.609 -210.605,78.609C-218.285,78.609 -223.993,72.693 -223.993,64.909C-223.993,57.125 -218.285,51.209 -210.605,51.209C-203.028,51.209 -197.32,57.125 -197.32,64.909M-255.604,92.204C-251.452,92.204 -248.028,91.478 -244.707,90.129L-244.707,74.768C-247.405,76.844 -250.415,78.298 -254.774,78.298C-261.934,78.298 -268.265,73.004 -268.265,64.909C-268.265,56.814 -261.934,51.521 -254.774,51.521C-250.415,51.521 -247.405,52.87 -244.81,55.05L-244.81,39.69C-248.028,38.34 -251.452,37.614 -255.604,37.614C-270.549,37.614 -283.418,49.134 -283.418,64.909C-283.418,80.684 -270.549,92.204 -255.604,92.204M-289.768,69.476L-289.768,38.859L-305.543,38.859L-305.543,68.957C-305.543,75.08 -308.656,78.712 -313.949,78.712C-319.346,78.712 -322.46,75.08 -322.46,68.957L-322.46,38.859L-338.235,38.859L-338.235,69.371C-338.235,82.864 -328.064,92.204 -313.949,92.204C-299.938,92.204 -289.768,82.864 -289.768,69.476M-361.811,90.959L-346.036,90.959L-346.036,18.828L-361.811,18.828L-361.811,45.087C-364.821,41.039 -370.737,37.614 -377.898,37.614C-392.116,37.614 -403.637,49.341 -403.637,64.909C-403.637,80.477 -392.116,92.204 -377.898,92.204C-370.737,92.204 -364.821,88.779 -361.811,84.732L-361.811,90.959ZM-361.292,64.909C-361.292,72.693 -367,78.609 -374.68,78.609C-382.257,78.609 -387.965,72.693 -387.965,64.909C-387.965,57.125 -382.257,51.209 -374.68,51.209C-367,51.209 -361.292,57.125 -361.292,64.909M-385.627,1.128L-398.354,-7.99C-413.393,13.004 -429.282,14.712 -446.999,14.712L-477.78,14.712L-477.78,30.368L-446.999,30.368C-427.441,30.368 -404.955,28.108 -385.627,1.128M-422.673,45.031L-477.793,45.031L-477.793,60.687L-422.673,60.687L-422.673,45.031ZM-407.804,75.299L-477.794,75.299L-477.794,90.955L-407.804,90.955L-407.804,75.299ZM-121.478,38.859L-137.253,38.859L-137.253,90.959L-121.478,90.959L-121.478,38.859Z" style="fill:rgb(6,148,145);fill-rule:nonzero;"/>
    </g>
</svg>
