<?xml version="1.0" encoding="UTF-8"?>
<svg width="20" height="20" viewBox="0 0 20 20" fill="none" xmlns="http://www.w3.org/2000/svg">
  <rect width="20" height="20" rx="2" fill="white"/>
  <mask id="mask0" mask-type="alpha" maskUnits="userSpaceOnUse" x="0" y="0" width="20" height="20">
    <rect width="20" height="20" rx="2" fill="white"/>
  </mask>
  <g mask="url(#mask0)">
    <rect width="20" height="20" fill="#012169"/>
    <path d="M20 0V2.5L12.5 10L20 17.5V20H17.5L10 12.5L2.5 20H0V17.5L7.5 10L0 2.5V0H2.5L10 7.5L17.5 0H20Z" fill="white"/>
    <path d="M7.5 7.5L0 0V1.5L6 7.5H7.5ZM13.5 7.5L20 1.5V0L12.5 7.5H13.5ZM7.5 12.5H6L0 18.5V20L7.5 12.5ZM13.5 12.5L20 19V17.5L14 12.5H13.5Z" fill="#C8102E"/>
    <path d="M8.5 0V20H11.5V0H8.5ZM0 7V13H20V7H0Z" fill="white"/>
    <path d="M0 8V12H20V8H0ZM9.5 0V20H10.5V0H9.5Z" fill="#C8102E"/>
  </g>
</svg> 