<?xml version="1.0" encoding="UTF-8" standalone="no"?>
<!DOCTYPE svg PUBLIC "-//W3C//DTD SVG 1.1//EN" "http://www.w3.org/Graphics/SVG/1.1/DTD/svg11.dtd">
<svg width="100%" height="100%" viewBox="0 0 1513 331" version="1.1" xmlns="http://www.w3.org/2000/svg" xmlns:xlink="http://www.w3.org/1999/xlink" xml:space="preserve" xmlns:serif="http://www.serif.com/" style="fill-rule:evenodd;clip-rule:evenodd;stroke-linejoin:round;stroke-miterlimit:2;">
    <g transform="matrix(4.16667,0,0,4.16667,1466.15,124.821)">
        <path d="M0,19.32L10.751,16.612C8.864,10.21 3.119,6.106 -4.432,6.106C-13.542,6.106 -19.698,12.344 -19.698,19.484C-19.698,34.585 -0.247,29.661 -0.247,36.063C-0.247,38.607 -2.298,39.92 -4.76,39.92C-7.715,39.92 -10.259,38.032 -11.244,34.585L-21.831,37.786C-20.026,45.091 -12.557,49.277 -4.924,49.277C3.365,49.277 11.326,43.86 11.326,35.406C11.326,19.977 -8.29,24.819 -8.29,18.745C-8.29,16.776 -6.648,15.38 -4.596,15.38C-2.216,15.38 -0.657,16.776 0,19.32M-25.605,31.303L-25.605,7.091L-38.081,7.091L-38.081,30.892C-38.081,35.735 -40.542,38.607 -44.728,38.607C-48.996,38.607 -51.458,35.735 -51.458,30.892L-51.458,7.091L-63.933,7.091L-63.933,31.22C-63.933,41.89 -55.89,49.277 -44.728,49.277C-33.648,49.277 -25.605,41.89 -25.605,31.303M-68.95,-8.749C-68.95,-12.853 -72.315,-16.136 -76.336,-16.136C-80.44,-16.136 -83.806,-12.853 -83.806,-8.749C-83.806,-4.645 -80.44,-1.363 -76.336,-1.363C-72.315,-1.363 -68.95,-4.645 -68.95,-8.749M-99.528,32.381L-99.528,17.825L-88.759,17.825L-88.759,7.226L-99.528,7.226L-99.528,-8.749L-111.909,-8.749L-111.909,32.381C-111.909,41.1 -104.825,48.194 -96.11,48.212L-87.987,48.289L-87.87,35.908L-96.02,35.831L-96.079,35.831C-97.981,35.831 -99.528,34.283 -99.528,32.381M-130.404,48.292L-117.928,48.292L-117.928,7.091L-130.404,7.091L-130.404,12.016C-132.866,8.815 -137.544,6.106 -143.207,6.106C-154.451,6.106 -163.561,15.38 -163.561,27.691C-163.561,40.003 -154.451,49.277 -143.207,49.277C-137.544,49.277 -132.866,46.568 -130.404,43.367L-130.404,48.292ZM-130.075,27.691C-130.075,33.847 -134.589,38.525 -140.58,38.525C-146.654,38.525 -151.168,33.847 -151.168,27.691C-151.168,21.536 -146.654,16.858 -140.58,16.858C-134.589,16.858 -130.075,21.536 -130.075,27.691M-176.166,49.277C-172.883,49.277 -170.175,48.702 -167.548,47.635L-167.548,35.488C-169.682,37.13 -172.062,38.279 -175.509,38.279C-181.172,38.279 -186.179,34.093 -186.179,27.691C-186.179,21.289 -181.172,17.104 -175.509,17.104C-172.062,17.104 -169.682,18.171 -167.63,19.895L-167.63,7.748C-170.175,6.68 -172.883,6.106 -176.166,6.106C-187.984,6.106 -198.162,15.216 -198.162,27.691C-198.162,40.167 -187.984,49.277 -176.166,49.277M-203.183,31.303L-203.183,7.091L-215.658,7.091L-215.658,30.892C-215.658,35.735 -218.12,38.607 -222.305,38.607C-226.573,38.607 -229.036,35.735 -229.036,30.892L-229.036,7.091L-241.51,7.091L-241.51,31.22C-241.51,41.89 -233.468,49.277 -222.305,49.277C-211.226,49.277 -203.183,41.89 -203.183,31.303M-260.155,48.292L-247.68,48.292L-247.68,-8.749L-260.155,-8.749L-260.155,12.016C-262.535,8.815 -267.213,6.106 -272.876,6.106C-284.12,6.106 -293.231,15.38 -293.231,27.691C-293.231,40.003 -284.12,49.277 -272.876,49.277C-267.213,49.277 -262.535,46.568 -260.155,43.367L-260.155,48.292ZM-259.744,27.691C-259.744,33.847 -264.258,38.525 -270.332,38.525C-276.323,38.525 -280.837,33.847 -280.837,27.691C-280.837,21.536 -276.323,16.858 -270.332,16.858C-264.258,16.858 -259.744,21.536 -259.744,27.691M-278.988,-22.747L-289.053,-29.957C-300.946,-13.355 -313.511,-12.004 -327.521,-12.004L-351.863,-12.004L-351.863,0.376L-327.521,0.376C-312.055,0.376 -294.273,-1.411 -278.988,-22.747M-308.285,11.972L-351.875,11.972L-351.875,24.353L-308.285,24.353L-308.285,11.972ZM-296.526,35.908L-351.874,35.908L-351.874,48.289L-296.526,48.289L-296.526,35.908ZM-70.099,7.091L-82.574,7.091L-82.574,48.292L-70.099,48.292L-70.099,7.091Z" style="fill:white;fill-rule:nonzero;"/>
    </g>
</svg>
